<svg width="187" height="40" viewBox="0 0 187 40" fill="none" xmlns="http://www.w3.org/2000/svg">
<path d="M32.64 4.8C33.4667 4.96 34.08 5.24 34.48 5.64C34.9067 6.04 35.12 6.50667 35.12 7.04C35.12 7.92 34.8667 8.56 34.36 8.96C33.88 9.36 33.1067 9.52 32.04 9.44C29.64 9.25333 27.76 9.13333 26.4 9.08C25.0667 9 23.3067 8.94667 21.12 8.92C20.1333 13.8267 19.2267 18.76 18.4 23.72C18.1067 25.5333 17.8 27.64 17.48 30.04C17.16 32.4133 16.9467 34.3333 16.84 35.8C16.7867 36.5733 16.4667 37.1733 15.88 37.6C15.2933 38 14.5867 38.2 13.76 38.2C12.88 38.2 12.2 37.9867 11.72 37.56C11.24 37.1333 11 36.5733 11 35.88C11 35.24 11.0933 34.1867 11.28 32.72C11.4933 31.2267 11.7333 29.6667 12 28.04C12.2933 26.4133 12.52 25 12.68 23.8C12.9733 21.7733 13.3067 19.76 13.68 17.76C14.0533 15.76 14.4267 13.8667 14.8 12.08C14.88 11.68 14.9733 11.2267 15.08 10.72C15.1867 10.1867 15.3067 9.6 15.44 8.96C12.8267 9.04 10.7733 9.25333 9.28 9.6C7.78667 9.94667 6.72 10.44 6.08 11.08C5.46667 11.6933 5.16 12.4933 5.16 13.48C5.16 14.3867 5.42667 15.2533 5.96 16.08C6.06667 16.2667 6.12 16.4667 6.12 16.68C6.12 17.1867 5.81333 17.6667 5.2 18.12C4.61333 18.5467 4 18.76 3.36 18.76C2.90667 18.76 2.53333 18.6267 2.24 18.36C1.70667 17.9067 1.26667 17.2667 0.92 16.44C0.573333 15.5867 0.4 14.6267 0.4 13.56C0.4 11.2933 1.13333 9.48 2.6 8.12C4.09333 6.73333 6.34667 5.72 9.36 5.08C12.4 4.44 16.2933 4.12 21.04 4.12C23.9733 4.12 26.3067 4.17333 28.04 4.28C29.8 4.38666 31.3333 4.56 32.64 4.8ZM30.4397 38.2C29.4264 38.2 28.7064 37.6667 28.2797 36.6C27.8797 35.5333 27.6797 33.8267 27.6797 31.48C27.6797 28.0133 28.173 24.72 29.1597 21.6C29.3997 20.8267 29.7864 20.2667 30.3197 19.92C30.8797 19.5467 31.653 19.36 32.6397 19.36C33.173 19.36 33.5464 19.4267 33.7597 19.56C33.973 19.6933 34.0797 19.9467 34.0797 20.32C34.0797 20.7467 33.8797 21.7067 33.4797 23.2C33.213 24.2667 32.9997 25.2 32.8397 26C32.6797 26.8 32.5464 27.7867 32.4397 28.96C33.3197 26.6667 34.3064 24.8 35.3997 23.36C36.493 21.92 37.5597 20.8933 38.5997 20.28C39.6664 19.6667 40.6397 19.36 41.5197 19.36C43.253 19.36 44.1197 20.2267 44.1197 21.96C44.1197 22.3067 43.9997 23.1467 43.7597 24.48C43.5464 25.5467 43.4397 26.2133 43.4397 26.48C43.4397 27.4133 43.773 27.88 44.4397 27.88C45.1864 27.88 46.1464 27.2933 47.3197 26.12C47.6664 25.7733 48.0264 25.6 48.3997 25.6C48.7464 25.6 49.013 25.76 49.1997 26.08C49.413 26.3733 49.5197 26.7733 49.5197 27.28C49.5197 28.2667 49.253 29.04 48.7197 29.6C47.973 30.3733 47.093 31.04 46.0797 31.6C45.093 32.1333 44.0397 32.4 42.9197 32.4C41.5064 32.4 40.4264 32.04 39.6797 31.32C38.9597 30.6 38.5997 29.6267 38.5997 28.4C38.5997 28 38.6397 27.6 38.7197 27.2C38.773 26.6667 38.7997 26.3067 38.7997 26.12C38.7997 25.6933 38.653 25.48 38.3597 25.48C37.9597 25.48 37.4264 25.9333 36.7597 26.84C36.1197 27.72 35.4797 28.8933 34.8397 30.36C34.1997 31.8267 33.6797 33.3733 33.2797 35C32.9864 36.2533 32.6397 37.1067 32.2397 37.56C31.8664 37.9867 31.2664 38.2 30.4397 38.2ZM50.7228 38.2C49.0695 38.2 47.7495 37.6 46.7628 36.4C45.7761 35.2 45.2828 33.6267 45.2828 31.68C45.2828 29.5467 45.7761 27.5333 46.7628 25.64C47.7495 23.72 49.0561 22.1867 50.6828 21.04C52.3361 19.8667 54.0828 19.28 55.9228 19.28C56.5095 19.28 56.8961 19.4 57.0828 19.64C57.2961 19.8533 57.4695 20.2533 57.6028 20.84C58.1628 20.7333 58.7495 20.68 59.3628 20.68C60.6695 20.68 61.3228 21.1467 61.3228 22.08C61.3228 22.64 61.1228 23.9733 60.7228 26.08C60.1095 29.1467 59.8028 31.28 59.8028 32.48C59.8028 32.88 59.8961 33.2 60.0828 33.44C60.2961 33.68 60.5628 33.8 60.8828 33.8C61.3895 33.8 62.0028 33.48 62.7228 32.84C63.4428 32.1733 64.4161 31.1067 65.6428 29.64C65.9628 29.2667 66.3228 29.08 66.7228 29.08C67.0695 29.08 67.3361 29.24 67.5228 29.56C67.7361 29.88 67.8428 30.32 67.8428 30.88C67.8428 31.9467 67.5895 32.7733 67.0828 33.36C65.9895 34.72 64.8295 35.8667 63.6028 36.8C62.3761 37.7333 61.1895 38.2 60.0428 38.2C59.1628 38.2 58.3495 37.9067 57.6028 37.32C56.8828 36.7067 56.3361 35.88 55.9628 34.84C54.5761 37.08 52.8295 38.2 50.7228 38.2ZM52.1628 34.16C52.7495 34.16 53.3095 33.8133 53.8428 33.12C54.3761 32.4267 54.7628 31.5067 55.0028 30.36L56.4828 23C55.3628 23.0267 54.3228 23.4533 53.3628 24.28C52.4295 25.08 51.6828 26.1467 51.1228 27.48C50.5628 28.8133 50.2828 30.2267 50.2828 31.72C50.2828 32.5467 50.4428 33.16 50.7628 33.56C51.1095 33.96 51.5761 34.16 52.1628 34.16ZM84.7825 25.84C84.8625 25.8133 84.9958 25.8 85.1825 25.8C85.5825 25.8 85.8892 25.9333 86.1025 26.2C86.3158 26.4667 86.4225 26.8267 86.4225 27.28C86.4225 28.1067 86.2625 28.76 85.9425 29.24C85.6225 29.6933 85.1425 30.0267 84.5025 30.24C83.2758 30.64 81.9692 30.84 80.5825 30.84C79.4092 30.84 78.3025 30.68 77.2625 30.36C76.4892 31.6133 75.6358 32.9067 74.7025 34.24C73.6358 35.76 72.7158 36.8 71.9425 37.36C71.1692 37.92 70.2892 38.2 69.3025 38.2C68.2092 38.2 67.3425 37.7733 66.7025 36.92C66.0892 36.0667 65.7025 34.72 65.5425 32.88C65.2225 29.1467 65.0625 25.88 65.0625 23.08V21.68C65.0892 20.8 65.3292 20.1867 65.7825 19.84C66.2358 19.4933 66.9158 19.32 67.8225 19.32C68.5158 19.32 69.0225 19.48 69.3425 19.8C69.6892 20.0933 69.8625 20.6 69.8625 21.32C69.8625 24.3867 70.0492 28.3733 70.4225 33.28C72.0225 30.9067 73.2225 29.0133 74.0225 27.6C73.6225 26.8267 73.4225 25.9067 73.4225 24.84C73.4225 23.9333 73.6225 23.0533 74.0225 22.2C74.4225 21.3467 74.9692 20.6533 75.6625 20.12C76.3558 19.5867 77.1425 19.32 78.0225 19.32C78.7958 19.32 79.4225 19.6 79.9025 20.16C80.3825 20.6933 80.6225 21.48 80.6225 22.52C80.6225 23.72 80.3025 25.0933 79.6625 26.64C80.6758 26.5867 82.0225 26.3867 83.7025 26.04L84.7825 25.84ZM100.791 29.08C101.138 29.08 101.405 29.24 101.591 29.56C101.805 29.88 101.911 30.32 101.911 30.88C101.911 31.9467 101.658 32.7733 101.151 33.36C100.165 34.56 98.7646 35.6667 96.9513 36.68C95.1646 37.6933 93.2446 38.2 91.1913 38.2C88.3913 38.2 86.2179 37.44 84.6713 35.92C83.1246 34.4 82.3512 32.32 82.3512 29.68C82.3512 27.84 82.7379 26.1333 83.5113 24.56C84.2846 22.96 85.3513 21.6933 86.7113 20.76C88.0979 19.8267 89.6579 19.36 91.3913 19.36C92.9379 19.36 94.1779 19.8267 95.1113 20.76C96.0446 21.6667 96.5113 22.9067 96.5113 24.48C96.5113 26.32 95.8446 27.9067 94.5113 29.24C93.2046 30.5467 90.9779 31.5867 87.8313 32.36C88.4979 33.5867 89.7646 34.2 91.6313 34.2C92.8313 34.2 94.1913 33.7867 95.7113 32.96C97.2579 32.1067 98.5913 31 99.7113 29.64C100.031 29.2667 100.391 29.08 100.791 29.08ZM90.7113 23.28C89.7246 23.28 88.8846 23.8533 88.1913 25C87.5246 26.1467 87.1913 27.5333 87.1913 29.16V29.24C88.7646 28.8667 90.0046 28.3067 90.9113 27.56C91.8179 26.8133 92.2713 25.9467 92.2713 24.96C92.2713 24.4533 92.1246 24.0533 91.8313 23.76C91.5646 23.44 91.1913 23.28 90.7113 23.28ZM110.214 32.36C110.508 32.0933 110.801 31.96 111.094 31.96C111.414 31.96 111.668 32.1467 111.854 32.52C112.068 32.8667 112.174 33.2933 112.174 33.8C112.174 34.92 111.774 35.8133 110.974 36.48C109.588 37.6267 108.014 38.2 106.254 38.2C103.721 38.2 101.868 37.1467 100.694 35.04C99.521 32.9067 98.9344 30.1333 98.9344 26.72C98.9344 23.4667 99.3477 19.76 100.174 15.6C101.028 11.44 102.268 7.86667 103.894 4.88C105.548 1.89333 107.508 0.399998 109.774 0.399998C111.054 0.399998 112.054 0.999998 112.774 2.2C113.521 3.37333 113.894 5.06667 113.894 7.28C113.894 10.4533 113.014 14.1333 111.254 18.32C109.521 22.5067 107.148 26.64 104.134 30.72C104.321 31.8133 104.654 32.6 105.134 33.08C105.614 33.56 106.268 33.8 107.094 33.8C107.548 33.8 108.054 33.6667 108.614 33.4C109.201 33.1333 109.734 32.7867 110.214 32.36ZM108.894 4.36C108.281 4.36 107.588 5.46667 106.814 7.68C106.041 9.89333 105.361 12.64 104.774 15.92C104.188 19.2 103.868 22.3467 103.814 25.36C105.708 22.24 107.214 19.12 108.334 16C109.454 12.8533 110.014 9.98666 110.014 7.4C110.014 5.37333 109.641 4.36 108.894 4.36ZM134.367 38.2C132.82 38.2 131.074 38.0667 129.127 37.8C128.06 37.6667 127.327 37.3867 126.927 36.96C126.527 36.5333 126.354 35.84 126.407 34.88C126.594 32.24 127.034 28.9867 127.727 25.12C128.42 21.2267 129.26 17.48 130.247 13.88C130.434 13.2133 130.807 12.7467 131.367 12.48C131.927 12.2133 132.66 12.08 133.567 12.08C135.194 12.08 136.007 12.5333 136.007 13.44C136.007 13.8133 135.927 14.24 135.767 14.72C135.074 16.8533 134.38 19.72 133.687 23.32C132.994 26.8933 132.5 30.3067 132.207 33.56C133.007 33.64 133.914 33.68 134.927 33.68C139.594 33.68 143.074 32.2667 145.367 29.44C147.687 26.6133 148.847 22.84 148.847 18.12C148.847 14.9467 147.94 12.4933 146.127 10.76C144.314 9.02666 141.754 8.16 138.447 8.16C136.314 8.16 134.194 8.49333 132.087 9.16C130.007 9.82667 128.127 10.7067 126.447 11.8C126.1 12.04 125.727 12.16 125.327 12.16C124.874 12.16 124.514 11.9733 124.247 11.6C123.98 11.2 123.847 10.72 123.847 10.16C123.847 9.52 123.954 9 124.167 8.6C124.38 8.17333 124.74 7.78666 125.247 7.44C127.087 6.18666 129.247 5.24 131.727 4.6C134.207 3.93333 136.594 3.6 138.887 3.6C142.14 3.6 144.954 4.17333 147.327 5.32C149.7 6.44 151.527 8.09333 152.807 10.28C154.087 12.4667 154.727 15.1067 154.727 18.2C154.727 22.2267 153.927 25.7467 152.327 28.76C150.727 31.7467 148.394 34.0667 145.327 35.72C142.26 37.3733 138.607 38.2 134.367 38.2ZM175.244 29.08C175.591 29.08 175.858 29.24 176.044 29.56C176.258 29.88 176.364 30.32 176.364 30.88C176.364 31.9467 176.111 32.7733 175.604 33.36C174.618 34.56 173.218 35.6667 171.404 36.68C169.618 37.6933 167.698 38.2 165.644 38.2C162.844 38.2 160.671 37.44 159.124 35.92C157.578 34.4 156.804 32.32 156.804 29.68C156.804 27.84 157.191 26.1333 157.964 24.56C158.738 22.96 159.804 21.6933 161.164 20.76C162.551 19.8267 164.111 19.36 165.844 19.36C167.391 19.36 168.631 19.8267 169.564 20.76C170.498 21.6667 170.964 22.9067 170.964 24.48C170.964 26.32 170.298 27.9067 168.964 29.24C167.658 30.5467 165.431 31.5867 162.284 32.36C162.951 33.5867 164.218 34.2 166.084 34.2C167.284 34.2 168.644 33.7867 170.164 32.96C171.711 32.1067 173.044 31 174.164 29.64C174.484 29.2667 174.844 29.08 175.244 29.08ZM165.164 23.28C164.178 23.28 163.338 23.8533 162.644 25C161.978 26.1467 161.644 27.5333 161.644 29.16V29.24C163.218 28.8667 164.458 28.3067 165.364 27.56C166.271 26.8133 166.724 25.9467 166.724 24.96C166.724 24.4533 166.578 24.0533 166.284 23.76C166.018 23.44 165.644 23.28 165.164 23.28ZM180.548 39.08C179.161 39.08 178.094 38.76 177.348 38.12C176.628 37.48 176.268 36.76 176.268 35.96C176.268 35.2667 176.521 34.6667 177.028 34.16C177.534 33.6533 178.281 33.4 179.268 33.4C179.614 33.4 180.014 33.44 180.468 33.52C180.948 33.5733 181.308 33.6133 181.548 33.64C181.521 32.9467 181.361 32.2933 181.068 31.68C180.801 31.0667 180.454 30.48 180.028 29.92C179.601 29.3333 179.201 28.8267 178.828 28.4C178.001 29.9733 177.174 31.28 176.348 32.32C175.548 33.36 174.668 34.3467 173.708 35.28C173.228 35.76 172.721 36 172.188 36C171.761 36 171.414 35.8533 171.147 35.56C170.881 35.24 170.747 34.8533 170.747 34.4C170.747 33.8667 170.934 33.3733 171.308 32.92L171.828 32.28C173.294 30.4667 174.401 28.9733 175.148 27.8C175.628 27.0267 176.108 26.1067 176.588 25.04C177.094 23.9733 177.748 22.52 178.548 20.68C179.054 19.5067 180.108 18.92 181.708 18.92C182.454 18.92 182.974 18.9867 183.268 19.12C183.561 19.2533 183.708 19.4667 183.708 19.76C183.708 19.92 183.654 20.1733 183.548 20.52C183.441 20.8667 183.294 21.2133 183.108 21.56C182.628 22.52 182.388 23.3333 182.388 24C182.388 24.4 182.521 24.84 182.788 25.32C183.081 25.8 183.521 26.4 184.108 27.12C184.961 28.24 185.601 29.2 186.028 30C186.481 30.7733 186.708 31.6267 186.708 32.56C186.708 33.68 186.441 34.7467 185.908 35.76C185.401 36.7467 184.681 37.5467 183.748 38.16C182.814 38.7733 181.748 39.08 180.548 39.08Z" fill="#F26F55"/>
</svg>
